<svg xmlns="http://www.w3.org/2000/svg" xmlns:xlink="http://www.w3.org/1999/xlink" width="512" zoomAndPan="magnify" viewBox="0 0 384 383.999986" height="512" preserveAspectRatio="xMidYMid meet" version="1.0"><defs><filter x="0%" y="0%" width="100%" height="100%" id="ec234e441e"><feColorMatrix values="0 0 0 0 1 0 0 0 0 1 0 0 0 0 1 0 0 0 1 0" color-interpolation-filters="sRGB"/></filter><clipPath id="6b4bfe99d7"><path d="M 108 93 L 276 93 L 276 260 L 108 260 Z M 108 93 " clip-rule="nonzero"/></clipPath><clipPath id="a2db0fe324"><path d="M 191.996094 85.882812 L 282.71875 176.605469 L 191.996094 267.328125 L 101.273438 176.605469 Z M 191.996094 85.882812 " clip-rule="nonzero"/></clipPath><clipPath id="f66e46574a"><path d="M 204.726562 98.609375 L 269.992188 163.878906 C 277.023438 170.90625 277.023438 182.304688 269.992188 189.332031 L 204.726562 254.601562 C 197.695312 261.628906 186.300781 261.628906 179.269531 254.601562 L 114.003906 189.332031 C 106.972656 182.304688 106.972656 170.90625 114.003906 163.878906 L 179.269531 98.609375 C 186.300781 91.582031 197.695312 91.582031 204.726562 98.609375 Z M 204.726562 98.609375 " clip-rule="nonzero"/></clipPath><mask id="0fe04bfd72"><g filter="url(#ec234e441e)"><rect x="-38.4" width="460.8" fill="#000000" y="-38.399999" height="460.799983" fill-opacity="0.14"/></g></mask><clipPath id="d3942cee2f"><path d="M 8 7 L 136 7 L 136 135 L 8 135 Z M 8 7 " clip-rule="nonzero"/></clipPath><clipPath id="000bc8106e"><path d="M 72 0.496094 L 142.914062 71.410156 L 72 142.328125 L 1.082031 71.410156 Z M 72 0.496094 " clip-rule="nonzero"/></clipPath><clipPath id="73abdc88cc"><path d="M 84.726562 13.222656 L 130.1875 58.683594 C 137.21875 65.710938 137.21875 77.109375 130.1875 84.140625 L 84.726562 129.601562 C 77.699219 136.628906 66.300781 136.628906 59.269531 129.601562 L 13.808594 84.140625 C 6.78125 77.109375 6.78125 65.710938 13.808594 58.683594 L 59.269531 13.222656 C 66.300781 6.191406 77.699219 6.191406 84.726562 13.222656 Z M 84.726562 13.222656 " clip-rule="nonzero"/></clipPath><clipPath id="dd24ef8100"><rect x="0" width="144" y="0" height="143"/></clipPath><clipPath id="3faa8e4a2c"><path d="M 108 24 L 276 24 L 276 192 L 108 192 Z M 108 24 " clip-rule="nonzero"/></clipPath><clipPath id="3cfbb4c246"><path d="M 191.996094 17.1875 L 282.71875 107.910156 L 191.996094 198.632812 L 101.273438 107.910156 Z M 191.996094 17.1875 " clip-rule="nonzero"/></clipPath><clipPath id="3e62a09d70"><path d="M 204.726562 29.914062 L 269.992188 95.183594 C 277.023438 102.210938 277.023438 113.609375 269.992188 120.640625 L 204.726562 185.90625 C 197.695312 192.9375 186.300781 192.9375 179.269531 185.90625 L 114.003906 120.640625 C 106.972656 113.609375 106.972656 102.210938 114.003906 95.183594 L 179.269531 29.914062 C 186.300781 22.886719 197.695312 22.886719 204.726562 29.914062 Z M 204.726562 29.914062 " clip-rule="nonzero"/></clipPath><clipPath id="8e1168c5fa"><path d="M 199 192 L 366 192 L 366 360 L 199 360 Z M 199 192 " clip-rule="nonzero"/></clipPath><clipPath id="bab240dc98"><path d="M 282.71875 185.367188 L 373.445312 276.089844 L 282.71875 366.8125 L 191.996094 276.089844 Z M 282.71875 185.367188 " clip-rule="nonzero"/></clipPath><clipPath id="75521d8c2d"><path d="M 295.449219 198.097656 L 360.714844 263.363281 C 367.746094 270.390625 367.746094 281.789062 360.714844 288.820312 L 295.449219 354.085938 C 288.417969 361.117188 277.023438 361.117188 269.992188 354.085938 L 204.726562 288.820312 C 197.695312 281.789062 197.695312 270.390625 204.726562 263.363281 L 269.992188 198.097656 C 277.023438 191.066406 288.417969 191.066406 295.449219 198.097656 Z M 295.449219 198.097656 " clip-rule="nonzero"/></clipPath><clipPath id="59af064437"><path d="M 18 192 L 185 192 L 185 360 L 18 360 Z M 18 192 " clip-rule="nonzero"/></clipPath><clipPath id="3fba452290"><path d="M 101.273438 185.367188 L 191.996094 276.089844 L 101.273438 366.8125 L 10.550781 276.089844 Z M 101.273438 185.367188 " clip-rule="nonzero"/></clipPath><clipPath id="b533344d96"><path d="M 114.003906 198.097656 L 179.269531 263.363281 C 186.300781 270.390625 186.300781 281.789062 179.269531 288.820312 L 114.003906 354.085938 C 106.972656 361.117188 95.574219 361.117188 88.546875 354.085938 L 23.277344 288.820312 C 16.25 281.789062 16.25 270.390625 23.277344 263.363281 L 88.546875 198.097656 C 95.574219 191.066406 106.972656 191.066406 114.003906 198.097656 Z M 114.003906 198.097656 " clip-rule="nonzero"/></clipPath><mask id="59c47baa20"><g filter="url(#ec234e441e)"><rect x="-38.4" width="460.8" fill="#000000" y="-38.399999" height="460.799983" fill-opacity="0.14"/></g></mask><clipPath id="86bab31f3a"><path d="M 8 8 L 137 8 L 137 137 L 8 137 Z M 8 8 " clip-rule="nonzero"/></clipPath><clipPath id="b77ecab925"><path d="M 73.992188 0.910156 L 143.996094 70.914062 L 70.710938 144.203125 L 0.707031 74.195312 Z M 73.992188 0.910156 " clip-rule="nonzero"/></clipPath><clipPath id="74d3af455b"><path d="M 86.71875 13.636719 L 131.269531 58.1875 C 138.300781 65.214844 138.300781 76.613281 131.269531 83.640625 L 83.46875 131.441406 C 76.441406 138.472656 65.042969 138.472656 58.015625 131.441406 L 13.464844 86.890625 C 6.4375 79.863281 6.4375 68.464844 13.464844 61.4375 L 61.265625 13.636719 C 68.292969 6.609375 79.691406 6.609375 86.71875 13.636719 Z M 86.71875 13.636719 " clip-rule="nonzero"/></clipPath><clipPath id="e8206608c0"><rect x="0" width="144" y="0" height="145"/></clipPath><mask id="741259b87a"><g filter="url(#ec234e441e)"><rect x="-38.4" width="460.8" fill="#000000" y="-38.399999" height="460.799983" fill-opacity="0.14"/></g></mask><clipPath id="dccea53978"><path d="M 8 7 L 137 7 L 137 137 L 8 137 Z M 8 7 " clip-rule="nonzero"/></clipPath><clipPath id="3f1bd1fa6d"><path d="M 72.9375 0.460938 L 144.257812 71.78125 L 72.101562 143.941406 L 0.777344 72.617188 Z M 72.9375 0.460938 " clip-rule="nonzero"/></clipPath><clipPath id="9306d7d79f"><path d="M 85.664062 13.1875 L 131.53125 59.054688 C 138.558594 66.082031 138.558594 77.480469 131.53125 84.511719 L 85.046875 130.992188 C 78.019531 138.023438 66.621094 138.023438 59.59375 130.992188 L 13.726562 85.125 C 6.695312 78.097656 6.695312 66.699219 13.726562 59.667969 L 60.207031 13.1875 C 67.238281 6.15625 78.632812 6.15625 85.664062 13.1875 Z M 85.664062 13.1875 " clip-rule="nonzero"/></clipPath><clipPath id="b1aadbdfba"><rect x="0" width="145" y="0" height="144"/></clipPath><mask id="51d35d9bf0"><g filter="url(#ec234e441e)"><rect x="-38.4" width="460.8" fill="#000000" y="-38.399999" height="460.799983" fill-opacity="0.14"/></g></mask><clipPath id="0c1b6defc0"><path d="M 8 8 L 136 8 L 136 136 L 8 136 Z M 8 8 " clip-rule="nonzero"/></clipPath><clipPath id="84e9742be8"><path d="M 72 0.800781 L 142.914062 71.71875 L 72 142.632812 L 1.082031 71.71875 Z M 72 0.800781 " clip-rule="nonzero"/></clipPath><clipPath id="06cc8dea6e"><path d="M 84.726562 13.527344 L 130.1875 58.988281 C 137.21875 66.019531 137.21875 77.414062 130.1875 84.445312 L 84.726562 129.90625 C 77.699219 136.933594 66.300781 136.933594 59.269531 129.90625 L 13.808594 84.445312 C 6.78125 77.414062 6.78125 66.019531 13.808594 58.988281 L 59.269531 13.527344 C 66.300781 6.5 77.699219 6.5 84.726562 13.527344 Z M 84.726562 13.527344 " clip-rule="nonzero"/></clipPath><clipPath id="3d7eafcf60"><rect x="0" width="144" y="0" height="143"/></clipPath></defs><g clip-path="url(#6b4bfe99d7)"><g clip-path="url(#a2db0fe324)"><g clip-path="url(#f66e46574a)"><path fill="#ad1be8" d="M 191.996094 85.882812 L 282.71875 176.605469 L 191.996094 267.328125 L 101.273438 176.605469 Z M 191.996094 85.882812 " fill-opacity="1" fill-rule="nonzero"/></g></g></g><g mask="url(#0fe04bfd72)"><g transform="matrix(1, 0, 0, 1, 120, 125)"><g clip-path="url(#dd24ef8100)"><g clip-path="url(#d3942cee2f)"><g clip-path="url(#000bc8106e)"><g clip-path="url(#73abdc88cc)"><path fill="#000000" d="M 72 0.496094 L 142.914062 71.410156 L 72 142.328125 L 1.082031 71.410156 Z M 72 0.496094 " fill-opacity="1" fill-rule="nonzero"/></g></g></g></g></g></g><g clip-path="url(#3faa8e4a2c)"><g clip-path="url(#3cfbb4c246)"><g clip-path="url(#3e62a09d70)"><path fill="#3b3b3b" d="M 191.996094 17.1875 L 282.71875 107.910156 L 191.996094 198.632812 L 101.273438 107.910156 Z M 191.996094 17.1875 " fill-opacity="1" fill-rule="nonzero"/></g></g></g><g clip-path="url(#8e1168c5fa)"><g clip-path="url(#bab240dc98)"><g clip-path="url(#75521d8c2d)"><path fill="#3b3b3b" d="M 282.71875 185.367188 L 373.445312 276.089844 L 282.71875 366.8125 L 191.996094 276.089844 Z M 282.71875 185.367188 " fill-opacity="1" fill-rule="nonzero"/></g></g></g><g clip-path="url(#59af064437)"><g clip-path="url(#3fba452290)"><g clip-path="url(#b533344d96)"><path fill="#3b3b3b" d="M 101.273438 185.367188 L 191.996094 276.089844 L 101.273438 366.8125 L 10.550781 276.089844 Z M 101.273438 185.367188 " fill-opacity="1" fill-rule="nonzero"/></g></g></g><g mask="url(#59c47baa20)"><g transform="matrix(1, 0, 0, 1, 48, 205)"><g clip-path="url(#e8206608c0)"><g clip-path="url(#86bab31f3a)"><g clip-path="url(#b77ecab925)"><g clip-path="url(#74d3af455b)"><path fill="#000000" d="M 73.992188 0.910156 L 143.996094 70.914062 L 70.710938 144.203125 L 0.707031 74.195312 Z M 73.992188 0.910156 " fill-opacity="1" fill-rule="nonzero"/></g></g></g></g></g></g><g mask="url(#741259b87a)"><g transform="matrix(1, 0, 0, 1, 191, 204)"><g clip-path="url(#b1aadbdfba)"><g clip-path="url(#dccea53978)"><g clip-path="url(#3f1bd1fa6d)"><g clip-path="url(#9306d7d79f)"><path fill="#000000" d="M 72.9375 0.460938 L 144.257812 71.78125 L 72.378906 143.660156 L 1.054688 72.339844 Z M 72.9375 0.460938 " fill-opacity="1" fill-rule="nonzero"/></g></g></g></g></g></g><g mask="url(#51d35d9bf0)"><g transform="matrix(1, 0, 0, 1, 120, 56)"><g clip-path="url(#3d7eafcf60)"><g clip-path="url(#0c1b6defc0)"><g clip-path="url(#84e9742be8)"><g clip-path="url(#06cc8dea6e)"><path fill="#000000" d="M 72 0.800781 L 142.914062 71.71875 L 72 142.632812 L 1.082031 71.71875 Z M 72 0.800781 " fill-opacity="1" fill-rule="nonzero"/></g></g></g></g></g></g></svg>